<svg width="24" height="24" viewBox="0 0 24 24" fill="none" xmlns="http://www.w3.org/2000/svg">
<path d="M7.40625 9.225L11.8125 6.675C11.925 6.61875 12.0563 6.61875 12.1688 6.675L16.5938 9.225C16.7063 9.28125 16.7812 9.4125 16.7812 9.525V14.625C16.7812 14.7563 16.7063 14.8687 16.5938 14.9437L12.1875 17.4938C12.075 17.55 11.9437 17.55 11.8312 17.4938L7.40625 14.9437C7.29375 14.8875 7.21875 14.7563 7.21875 14.625V9.525C7.21875 9.4125 7.29375 9.28125 7.40625 9.225Z" fill="#8080F2"/>
<path d="M23.4749 11.55L18.2062 2.3625C18.0187 2.025 17.6624 1.78125 17.2687 1.78125H6.73115C6.35615 1.78125 5.9999 2.025 5.79365 2.3625L0.524902 11.5312C0.337402 11.8687 0.337402 12.2813 0.524902 12.6188L5.79365 21.7313C5.98115 22.0688 6.3374 22.2375 6.73115 22.2375H17.2874C17.6624 22.2375 18.0187 22.0688 18.2249 21.75L23.4937 12.6375C23.6812 12.2625 23.6812 11.8687 23.4749 11.55ZM19.1062 15.9562C19.1062 16.0875 19.0312 16.2188 18.8999 16.275L12.1874 20.1562C12.0749 20.2313 11.9249 20.2313 11.8124 20.1562L5.08115 16.2938C4.96865 16.2188 4.8749 16.1062 4.8749 15.975V8.19375C4.8749 8.0625 4.9499 7.93125 5.08115 7.875L11.8124 3.99375C11.9249 3.91875 12.0749 3.91875 12.1874 3.99375L18.9187 7.875C19.0312 7.95 19.1249 8.0625 19.1249 8.19375V15.9562H19.1062Z" fill="#4B32C3"/>
</svg>
