<svg width="23" height="24" viewBox="0 0 23 24" fill="none" xmlns="http://www.w3.org/2000/svg">
<path fill-rule="evenodd" clip-rule="evenodd" d="M20.4996 8.71392L18.9999 6.71417L18.3572 5.85683L17.6428 4.28543L16.8573 2.6426L15.7856 0.856916L15.5714 0.428351L15.2857 0.214282L15.0714 0.071427L14.7857 0L14.5714 0.071427L14.4285 0.214282L14 0.642846L13.7143 1.28548L13.4281 1.99975L13.1424 3.35687L13.071 3.78543L12.2855 3.92829L11.7141 3.28566L9.21412 0.428564L8.78535 0.071427L8.42821 0L8.1425 0.214494L7.92822 0.643059L7.85679 1.21448L7.71394 1.85732L7.64251 3.3573L7.71394 5.50012L6.35682 6.85723L5.57112 7.92864L5.14277 8.5717L5.07134 8.92863L5.35705 9.50005V9.92861L5.28562 10.0715L5.07134 10.2143L2.85709 11.6429L0.499991 13.3569L0.214069 13.643L0.071427 13.9283L0 14.143V14.3573L0.142642 14.7145L0.356924 15.0716L0.928343 15.5716L1.49976 16.0716L2.57117 16.8575L3.78522 17.5715L3.4283 18.2856V18.5713L3.49951 18.7856L3.64237 18.9289L3.78501 19.0713L4.14215 19.2146H5.07091L5.64233 19.0003L5.92804 18.7856L6.21375 18.6427L6.78517 18.5713L7.14231 18.6427L7.28516 18.7142L7.57087 18.7856L7.71372 18.9289L7.99943 19.4289L8.07086 20.0003V21.429L8.28514 22.2145L8.64228 22.7859L9.14227 23.2145L9.42798 23.3574L9.78512 23.4288L10.1423 23.3574L10.4994 23.2859L10.7137 23.0717V22.7145L10.6425 22.2145L10.2853 21.6431L9.99961 21.1427L9.9284 20.7141V20.2856L9.99961 19.9999L10.2853 19.4999L10.4282 19.357H11.4998L12.2853 19.2142L12.8567 18.9284L13.2138 18.4995L13.4281 18.0709L13.571 17.7138L13.6428 17.3566L13.4995 16.6426L13.2853 16.1421L13.071 15.8564L12.7853 15.6422H12.2853L12.071 15.7136V16.2136L11.9996 16.6426L11.8567 16.9997L11.571 17.3568L11.2851 17.5711L10.928 17.7854L10.428 17.9283L9.85654 17.8568L8.85656 17.7854L7.85658 17.9283L6.71374 18.0711L6.92802 17.7854L7.28516 17.6425L8.21372 17.4283L9.42777 17.214L10.0706 16.9997L10.5706 16.8568L10.7849 16.5711L10.9275 16.2854V15.785L10.8561 15.4993L10.7132 15.3564L10.5704 15.285H9.99897L9.49898 15.3564L8.92756 15.6422L7.85615 16.1421L7.49902 16.4279L6.57046 16.8568L5.57027 16.9997L4.57029 16.9283L3.5703 16.6426L2.85603 16.2854L2.49889 15.8564L2.28461 15.4279L2.35604 14.9993L2.49889 14.5707L2.64175 14.285L2.85603 13.9275L2.49889 13.5703L2.28461 13.2132L2.42747 12.9275L2.57032 12.5704L3.21317 12.0704L3.71316 11.7844L6.71311 9.99876V9.28449L6.92739 8.78471L7.07024 8.35614L7.28452 7.99901L7.57023 7.78473L7.42738 8.28493L7.35595 8.78492L7.42738 9.49898L7.57023 10.1418L7.7843 10.7132L8.07001 11.2132L8.71286 12.0706L9.21285 12.642L9.56998 12.9991L9.99855 13.2848L10.4271 13.3563H10.6414L10.8555 13.142L10.9983 12.9991L11.0697 12.7849L10.9983 12.3563L10.7126 12.0706L10.284 11.9277L9.78575 11.7853L9.57147 11.4282L9.35719 11.071L9.92861 10.6425L10.3572 10.4996L10.7143 10.3567L10.9286 10.2855L11.1429 10.3567L11.2857 10.4996L11.4288 11.071L11.6431 11.3567L11.9288 11.4282H12.3574L12.7859 11.2139L13.3573 10.9282L13.8573 10.7853L14.3577 10.7139L14.7863 10.7853L15.1434 10.9996L15.5006 11.2139L15.7863 11.4996L16.001 11.8569L16.4296 12.7855L16.7153 13.6428L17.0724 15.1426V16.5711L16.7867 17.1426L16.501 17.714L16.001 18.1425L15.3579 18.5711L14.6439 19.0001L13.858 19.3572L13.4294 19.5001L13.0723 19.7858L12.7866 20.0715L12.5723 20.2858L12.2866 20.9284L12.1437 21.6429L12.2866 22.2855L12.4294 22.9282L12.7151 23.4282L13.0723 23.7853L13.4294 23.9286L13.858 24L14.287 23.9286L14.7155 23.7139L15.1441 23.3567L15.5012 22.7853L15.7869 22.2139L16.0731 21.4284L16.3588 20.7139L16.573 20.2139L16.9302 19.9282L17.1445 19.7854H17.6445L18.0016 19.9282L18.3592 20.0711H18.7163L19.002 19.9282L19.2877 19.7139L19.502 19.4282L19.7163 19.0707L20.002 18.1423L20.4305 16.2856L20.5734 15.5712L20.7877 15.1426L21.3593 14.714L22.0734 14.2855L22.4305 13.8565L22.5019 13.3565L22.4305 12.6424L22.2162 11.9284L21.9305 11.1424L21.502 10.3567L20.4996 8.71392ZM14.2857 4.99991L13.8567 3.9285L14.3571 3.28587L14.5714 2.78588L14.6428 2.35731V1.92875L14.9999 2.50017L15.1428 3.21423L15.2142 4.64278V6.07132L15.1428 7.49965L14.4287 6.71417L13.8571 6.21396L13.0716 5.7854L13.7861 5.92804L14.2147 5.99947L14.429 5.92804L14.5718 5.7854V5.57112L14.5004 5.28541L14.2857 4.99991ZM8.92863 1.64283L9.28576 2.49996L9.57147 3.28566L9.92882 4.28564L9.6429 4.57135L9.28576 4.78563L9.00005 4.92848L8.8572 4.64278V3.28566L8.92863 1.64283ZM10 9.21391L9.85718 9.14248L9.42862 8.92841L9.21434 8.85699L9.00005 8.92841L8.8572 9.07127L8.64313 9.35698L8.50028 9.64269L8.35742 9.71411H8.14314L8.21457 9.1427L8.42864 8.6427L8.57149 8.42842L8.78556 8.28557L9.57126 7.71415L9.99982 7.57129H10.5712L10.7855 7.71415L11.0712 7.99986L11.2855 8.42842L11.2143 8.78556V8.99984L11.2855 9.28534L11.3569 9.64269L11.6427 10.0713L11.2141 9.9284L10 9.21391Z" fill="#CF4044"/>
</svg>
