<svg width="24" height="24" viewBox="0 0 24 24" fill="none" xmlns="http://www.w3.org/2000/svg">
<path fill-rule="evenodd" clip-rule="evenodd" d="M8.9914 12.9375H11.8735C11.3773 11.25 10.8887 9.69 10.408 8.1045C9.94146 9.69562 9.46821 11.25 8.9914 12.9375ZM23.2708 0.1875H0.538525C0.12865 0.1875 0.187337 0.27675 0.187337 0.672188V23.4336C0.187337 23.8286 0.12865 23.8125 0.50965 23.8125H23.2997C23.6805 23.8125 23.8123 23.8286 23.8123 23.4334V0.701063C23.8123 0.27675 23.6807 0.1875 23.2708 0.1875ZM14.4932 18C14.1863 18 13.8782 17.9751 13.5728 17.997C13.3525 18.0135 13.2788 17.9209 13.2201 17.7296C12.9362 16.8051 12.6345 15.8809 12.3505 14.9565C12.2933 14.7705 12.2115 14.7026 12.01 14.7051C10.9744 14.7171 9.93827 14.7159 8.90252 14.7037C8.68446 14.7011 8.58415 14.7593 8.5219 14.9756C8.25827 15.8951 7.9699 16.8071 7.70346 17.7257C7.64571 17.9248 7.55796 17.9944 7.34646 17.9889C6.72434 17.9734 6.10127 17.9829 5.42009 17.9829C5.5999 17.412 5.76302 16.884 5.93177 16.3583C6.96565 13.1333 8.00309 9.90825 9.02946 6.68119C9.10109 6.45656 9.20065 6.38737 9.43127 6.39244C10.1599 6.40856 10.8891 6.39656 11.6181 6.39244C11.7544 6.3915 11.8474 6.39956 11.8973 6.55444C13.117 10.3262 14.341 14.1212 15.5638 17.8926C15.5691 17.9096 15.5657 18 15.5685 18H14.4932V18ZM18.3748 18H16.1248V9.5625H18.3748V18ZM17.1842 8.42419C16.497 8.42325 16.005 7.95019 16.0003 7.28606C15.9958 6.62381 16.5079 6.13125 17.2015 6.1305C17.9005 6.12975 18.393 6.60619 18.3985 7.28756C18.4033 7.95225 17.8984 8.42531 17.1842 8.42419V8.42419Z" fill="#FAA625"/>
</svg>
