<svg width="24" height="24" viewBox="0 0 24 24" fill="none" xmlns="http://www.w3.org/2000/svg">
<g clip-path="url(#clip0_7494_11995)">
<path d="M17.7145 4.57143H18.8574C19.1774 4.57143 19.4288 4.82285 19.4288 5.14285C19.4288 5.46286 19.1774 5.71428 18.8574 5.71428H17.7145C17.3945 5.71428 17.1431 5.46286 17.1431 5.14285C17.1431 4.82285 17.3945 4.57143 17.7145 4.57143Z" fill="#56B3B4"/>
<path d="M0.571429 22.8571H6.28571C6.60571 22.8571 6.85714 23.1086 6.85714 23.4286C6.85714 23.7486 6.60571 24 6.28571 24H0.571429C0.251429 24 0 23.7486 0 23.4286C0 23.1086 0.251429 22.8571 0.571429 22.8571Z" fill="#EA5E5E"/>
<path d="M14.2858 13.7143H17.7144C18.0344 13.7143 18.2858 13.9657 18.2858 14.2857C18.2858 14.6057 18.0344 14.8571 17.7144 14.8571H14.2858C13.9658 14.8571 13.7144 14.6057 13.7144 14.2857C13.7144 13.9657 13.9658 13.7143 14.2858 13.7143Z" fill="#BF85BF"/>
<path d="M7.42836 13.7143H11.9998C12.3198 13.7143 12.5712 13.9657 12.5712 14.2857C12.5712 14.6057 12.3198 14.8571 11.9998 14.8571H7.42836C7.10836 14.8571 6.85693 14.6057 6.85693 14.2857C6.85693 13.9657 7.10836 13.7143 7.42836 13.7143Z" fill="#EA5E5E"/>
<path d="M0.571429 13.7143H5.14286C5.46286 13.7143 5.71429 13.9657 5.71429 14.2857C5.71429 14.6057 5.46286 14.8571 5.14286 14.8571H0.571429C0.251429 14.8571 0 14.6057 0 14.2857C0 13.9657 0.251429 13.7143 0.571429 13.7143Z" fill="#56B3B4"/>
<path d="M0.571429 18.2857H6.28571C6.60571 18.2857 6.85714 18.5371 6.85714 18.8571C6.85714 19.1771 6.60571 19.4286 6.28571 19.4286H0.571429C0.251429 19.4286 0 19.1771 0 18.8571C0 18.5371 0.251429 18.2857 0.571429 18.2857Z" fill="#BF85BF"/>
<path d="M0.571429 9.14285H6.28571C6.60571 9.14285 6.85714 9.39428 6.85714 9.71428C6.85714 10.0343 6.60571 10.2857 6.28571 10.2857H0.571429C0.251429 10.2857 0 10.0343 0 9.71428C0 9.39428 0.251429 9.14285 0.571429 9.14285Z" fill="#BF85BF"/>
<path d="M6.28578 2.28571H17.7144C18.0344 2.28571 18.2858 2.53714 18.2858 2.85714C18.2858 3.17714 18.0344 3.42857 17.7144 3.42857H6.28578C5.96578 3.42857 5.71436 3.17714 5.71436 2.85714C5.71436 2.53714 5.96578 2.28571 6.28578 2.28571Z" fill="#F7BA3E"/>
<path d="M0.571429 2.28571H4C4.32 2.28571 4.57143 2.53714 4.57143 2.85714C4.57143 3.17714 4.32 3.42857 4 3.42857H0.571429C0.251429 3.42857 0 3.17714 0 2.85714C0 2.53714 0.251429 2.28571 0.571429 2.28571Z" fill="#EA5E5E"/>
<path d="M5.14272 20.5714H6.28557C6.60557 20.5714 6.857 20.8229 6.857 21.1429C6.857 21.4629 6.60557 21.7143 6.28557 21.7143H5.14272C4.82272 21.7143 4.57129 21.4629 4.57129 21.1429C4.57129 20.8229 4.82272 20.5714 5.14272 20.5714Z" fill="#F7BA3E"/>
<path d="M5.14272 6.85714H6.28557C6.60557 6.85714 6.857 7.10857 6.857 7.42857C6.857 7.74857 6.60557 8 6.28557 8H5.14272C4.82272 8 4.57129 7.74857 4.57129 7.42857C4.57129 7.10857 4.82272 6.85714 5.14272 6.85714Z" fill="#56B3B4"/>
<path d="M0.571429 20.5714H2.85714C3.17714 20.5714 3.42857 20.8229 3.42857 21.1429C3.42857 21.4629 3.17714 21.7143 2.85714 21.7143H0.571429C0.251429 21.7143 0 21.4629 0 21.1429C0 20.8229 0.251429 20.5714 0.571429 20.5714Z" fill="#56B3B4"/>
<path d="M0.571429 6.85714H2.85714C3.17714 6.85714 3.42857 7.10857 3.42857 7.42857C3.42857 7.74857 3.17714 8 2.85714 8H0.571429C0.251429 8 0 7.74857 0 7.42857C0 7.10857 0.251429 6.85714 0.571429 6.85714Z" fill="#F7BA3E"/>
<path opacity="0.5" d="M15.4284 20.5714H16.5712C16.8912 20.5714 17.1426 20.8229 17.1426 21.1429C17.1426 21.4629 16.8912 21.7143 16.5712 21.7143H15.4284C15.1084 21.7143 14.8569 21.4629 14.8569 21.1429C14.8569 20.8229 15.1084 20.5714 15.4284 20.5714Z" fill="#D0D4D8"/>
<path opacity="0.5" d="M8.57143 20.5714H13.1429C13.4629 20.5714 13.7143 20.8229 13.7143 21.1429C13.7143 21.4629 13.4629 21.7143 13.1429 21.7143H8.57143C8.25143 21.7143 8 21.4629 8 21.1429C8 20.8229 8.25143 20.5714 8.57143 20.5714Z" fill="#D0D4D8"/>
<path opacity="0.5" d="M18.8571 20.5714H23.4285C23.7485 20.5714 23.9999 20.8229 23.9999 21.1429C23.9999 21.4629 23.7485 21.7143 23.4285 21.7143H18.8571C18.5371 21.7143 18.2856 21.4629 18.2856 21.1429C18.2856 20.8229 18.5371 20.5714 18.8571 20.5714Z" fill="#D0D4D8"/>
<path d="M9.7145 11.4286H18.8574C19.1774 11.4286 19.4288 11.68 19.4288 12C19.4288 12.32 19.1774 12.5714 18.8574 12.5714H9.7145C9.39449 12.5714 9.14307 12.32 9.14307 12C9.14307 11.68 9.39449 11.4286 9.7145 11.4286Z" fill="#56B3B4"/>
<path d="M4.00014 11.4286H7.42871C7.74871 11.4286 8.00014 11.68 8.00014 12C8.00014 12.32 7.74871 12.5714 7.42871 12.5714H4.00014C3.68014 12.5714 3.42871 12.32 3.42871 12C3.42871 11.68 3.68014 11.4286 4.00014 11.4286Z" fill="#F7BA3E"/>
<path d="M0.571429 11.4286H1.71429C2.03429 11.4286 2.28571 11.68 2.28571 12C2.28571 12.32 2.03429 12.5714 1.71429 12.5714H0.571429C0.251429 12.5714 0 12.32 0 12C0 11.68 0.251429 11.4286 0.571429 11.4286Z" fill="#EA5E5E"/>
<path d="M10.8571 4.57143H15.4285C15.7485 4.57143 15.9999 4.82285 15.9999 5.14285C15.9999 5.46286 15.7485 5.71428 15.4285 5.71428H10.8571C10.5371 5.71428 10.2856 5.46286 10.2856 5.14285C10.2856 4.82285 10.5371 4.57143 10.8571 4.57143Z" fill="#BF85BF"/>
<path d="M0.571429 4.57143H8.57143C8.89143 4.57143 9.14286 4.82285 9.14286 5.14285C9.14286 5.46286 8.89143 5.71428 8.57143 5.71428H0.571429C0.251429 5.71428 0 5.46286 0 5.14285C0 4.82285 0.251429 4.57143 0.571429 4.57143Z" fill="#56B3B4"/>
<path d="M4.00014 16H14.2859C14.6059 16 14.8573 16.2514 14.8573 16.5714C14.8573 16.8914 14.6059 17.1429 14.2859 17.1429H4.00014C3.68014 17.1429 3.42871 16.8914 3.42871 16.5714C3.42871 16.2514 3.68014 16 4.00014 16Z" fill="#F7BA3E"/>
<path d="M0.571429 16H1.71429C2.03429 16 2.28571 16.2514 2.28571 16.5714C2.28571 16.8914 2.03429 17.1429 1.71429 17.1429H0.571429C0.251429 17.1429 0 16.8914 0 16.5714C0 16.2514 0.251429 16 0.571429 16Z" fill="#BF85BF"/>
<path d="M14.2858 6.85714H20.0001C20.3201 6.85714 20.5715 7.10857 20.5715 7.42857C20.5715 7.74857 20.3201 8 20.0001 8H14.2858C13.9658 8 13.7144 7.74857 13.7144 7.42857C13.7144 7.10857 13.9658 6.85714 14.2858 6.85714Z" fill="#EA5E5E"/>
<path d="M14.2858 9.14285H20.0001C20.3201 9.14285 20.5715 9.39428 20.5715 9.71428C20.5715 10.0343 20.3201 10.2857 20.0001 10.2857H14.2858C13.9658 10.2857 13.7144 10.0343 13.7144 9.71428C13.7144 9.39428 13.9658 9.14285 14.2858 9.14285Z" fill="#F7BA3E"/>
<path d="M0.571429 0H14.2857C14.6057 0 14.8571 0.251429 14.8571 0.571429C14.8571 0.891429 14.6057 1.14286 14.2857 1.14286H0.571429C0.251429 1.14286 0 0.891429 0 0.571429C0 0.251429 0.251429 0 0.571429 0Z" fill="#56B3B4"/>
<path opacity="0.5" d="M16.5714 0H23.4286C23.7486 0 24 0.251429 24 0.571429C24 0.891429 23.7486 1.14286 23.4286 1.14286H16.5714C16.2514 1.14286 16 0.891429 16 0.571429C16 0.251429 16.2514 0 16.5714 0Z" fill="#D0D4D8"/>
<path opacity="0.5" d="M16.5714 16H18.8571C19.1771 16 19.4286 16.2514 19.4286 16.5714C19.4286 16.8914 19.1771 17.1429 18.8571 17.1429H16.5714C16.2514 17.1429 16 16.8914 16 16.5714C16 16.2514 16.2514 16 16.5714 16Z" fill="#D0D4D8"/>
<path opacity="0.5" d="M21.1427 16H23.4284C23.7484 16 23.9999 16.2514 23.9999 16.5714C23.9999 16.8914 23.7484 17.1429 23.4284 17.1429H21.1427C20.8227 17.1429 20.5713 16.8914 20.5713 16.5714C20.5713 16.2514 20.8227 16 21.1427 16Z" fill="#D0D4D8"/>
<path opacity="0.5" d="M20.0001 13.7143H23.4287C23.7487 13.7143 24.0001 13.9657 24.0001 14.2857C24.0001 14.6057 23.7487 14.8571 23.4287 14.8571H20.0001C19.6801 14.8571 19.4287 14.6057 19.4287 14.2857C19.4287 13.9657 19.6801 13.7143 20.0001 13.7143Z" fill="#D0D4D8"/>
<path opacity="0.5" d="M20.0001 2.28571H23.4287C23.7487 2.28571 24.0001 2.53714 24.0001 2.85714C24.0001 3.17714 23.7487 3.42857 23.4287 3.42857H20.0001C19.6801 3.42857 19.4287 3.17714 19.4287 2.85714C19.4287 2.53714 19.6801 2.28571 20.0001 2.28571Z" fill="#D0D4D8"/>
<path opacity="0.5" d="M21.1427 11.4286H23.4284C23.7484 11.4286 23.9999 11.68 23.9999 12C23.9999 12.32 23.7484 12.5714 23.4284 12.5714H21.1427C20.8227 12.5714 20.5713 12.32 20.5713 12C20.5713 11.68 20.8227 11.4286 21.1427 11.4286Z" fill="#D0D4D8"/>
<path opacity="0.5" d="M21.1427 4.57143H23.4284C23.7484 4.57143 23.9999 4.82285 23.9999 5.14285C23.9999 5.46286 23.7484 5.71428 23.4284 5.71428H21.1427C20.8227 5.71428 20.5713 5.46286 20.5713 5.14285C20.5713 4.82285 20.8227 4.57143 21.1427 4.57143Z" fill="#D0D4D8"/>
<path opacity="0.5" d="M22.2858 6.85714H23.4286C23.7486 6.85714 24.0001 7.10857 24.0001 7.42857C24.0001 7.74857 23.7486 8 23.4286 8H22.2858C21.9658 8 21.7144 7.74857 21.7144 7.42857C21.7144 7.10857 21.9658 6.85714 22.2858 6.85714Z" fill="#D0D4D8"/>
<path opacity="0.5" d="M22.2858 9.14285H23.4286C23.7486 9.14285 24.0001 9.39428 24.0001 9.71428C24.0001 10.0343 23.7486 10.2857 23.4286 10.2857H22.2858C21.9658 10.2857 21.7144 10.0343 21.7144 9.71428C21.7144 9.39428 21.9658 9.14285 22.2858 9.14285Z" fill="#D0D4D8"/>
<path opacity="0.5" d="M13.1427 18.2857H23.4284C23.7484 18.2857 23.9999 18.5371 23.9999 18.8571C23.9999 19.1771 23.7484 19.4286 23.4284 19.4286H13.1427C12.8227 19.4286 12.5713 19.1771 12.5713 18.8571C12.5713 18.5371 12.8227 18.2857 13.1427 18.2857Z" fill="#D0D4D8"/>
<path opacity="0.5" d="M8.57143 18.2857H10.8571C11.1771 18.2857 11.4286 18.5371 11.4286 18.8571C11.4286 19.1771 11.1771 19.4286 10.8571 19.4286H8.57143C8.25143 19.4286 8 19.1771 8 18.8571C8 18.5371 8.25143 18.2857 8.57143 18.2857Z" fill="#D0D4D8"/>
<path opacity="0.5" d="M17.7145 22.8571H23.4288C23.7488 22.8571 24.0002 23.1086 24.0002 23.4286C24.0002 23.7486 23.7488 24 23.4288 24H17.7145C17.3945 24 17.1431 23.7486 17.1431 23.4286C17.1431 23.1086 17.3945 22.8571 17.7145 22.8571Z" fill="#D0D4D8"/>
<path opacity="0.5" d="M8.57143 22.8571H15.4286C15.7486 22.8571 16 23.1086 16 23.4286C16 23.7486 15.7486 24 15.4286 24H8.57143C8.25143 24 8 23.7486 8 23.4286C8 23.1086 8.25143 22.8571 8.57143 22.8571Z" fill="#D0D4D8"/>
<path opacity="0.5" d="M8.57143 6.85714H12C12.32 6.85714 12.5714 7.10857 12.5714 7.42857C12.5714 7.74857 12.32 8 12 8H8.57143C8.25143 8 8 7.74857 8 7.42857C8 7.10857 8.25143 6.85714 8.57143 6.85714Z" fill="#D0D4D8"/>
<path opacity="0.5" d="M8.57143 9.14285H12C12.32 9.14285 12.5714 9.39428 12.5714 9.71428C12.5714 10.0343 12.32 10.2857 12 10.2857H8.57143C8.25143 10.2857 8 10.0343 8 9.71428C8 9.39428 8.25143 9.14285 8.57143 9.14285Z" fill="#D0D4D8"/>
</g>
<defs>
<clipPath id="clip0_7494_11995">
<rect width="24" height="24" fill="white"/>
</clipPath>
</defs>
</svg>
