<svg width="24" height="24" viewBox="0 0 24 24" fill="none" xmlns="http://www.w3.org/2000/svg">
<path d="M13.9617 1.71761C13.8795 1.71539 13.797 1.71428 13.7143 1.71428H0V19.7143H13.7143C18.6849 19.7143 22.7143 15.6849 22.7143 10.7143C22.7143 10.0378 22.6396 9.37885 22.4982 8.74499C21.6662 9.18162 20.719 9.42857 19.7143 9.42857C16.4006 9.42857 13.7143 6.74227 13.7143 3.42856C13.7143 2.83409 13.8008 2.25982 13.9617 1.71761Z" fill="url(#paint0_linear_7494_11926)"/>
<path d="M0 1.71428L22.2857 24H0V1.71428Z" fill="url(#paint1_linear_7494_11926)"/>
<path d="M19.7142 6.85714C21.6077 6.85714 23.1428 5.32212 23.1428 3.42857C23.1428 1.53502 21.6077 0 19.7142 0C17.8207 0 16.2856 1.53502 16.2856 3.42857C16.2856 5.32212 17.8207 6.85714 19.7142 6.85714Z" fill="url(#paint2_linear_7494_11926)"/>
<defs>
<linearGradient id="paint0_linear_7494_11926" x1="0" y1="1.71428" x2="0" y2="19.7143" gradientUnits="userSpaceOnUse">
<stop stop-color="#05A0FA"/>
<stop offset="1" stop-color="#4785FF"/>
</linearGradient>
<linearGradient id="paint1_linear_7494_11926" x1="0" y1="1.71428" x2="0" y2="24" gradientUnits="userSpaceOnUse">
<stop stop-color="#1A8CFF"/>
<stop offset="1" stop-color="#0557FA"/>
</linearGradient>
<linearGradient id="paint2_linear_7494_11926" x1="16.2856" y1="0" x2="16.2856" y2="6.85714" gradientUnits="userSpaceOnUse">
<stop stop-color="#FF463A"/>
<stop offset="1" stop-color="#FF1F5A"/>
</linearGradient>
</defs>
</svg>
