<svg width="25" height="24" viewBox="0 0 25 24" fill="none" xmlns="http://www.w3.org/2000/svg">
<g clip-path="url(#clip0_7494_11953)">
<path d="M12.4982 5C9.29935 5 7.30019 6.59897 6.50041 9.7966C7.70008 8.19763 9.09955 7.59825 10.6988 7.99784C11.6114 8.22583 12.2636 8.88792 12.9857 9.6205C14.1616 10.8139 15.5227 12.195 18.496 12.195C21.6945 12.195 23.6939 10.5961 24.4934 7.39815C23.2941 8.99712 21.8946 9.5968 20.295 9.19721C19.3827 8.96922 18.7305 8.30713 18.0085 7.57455C16.8325 6.38117 15.4711 5 12.4982 5ZM6.50041 12.195C3.30187 12.195 1.30241 13.794 0.50293 16.9919C1.7023 15.393 3.10178 14.7933 4.70134 15.1932C5.61362 15.4215 6.26581 16.0833 6.9879 16.8156C8.16387 18.0089 9.52524 19.3904 12.4982 19.3904C15.697 19.3904 17.6962 17.7914 18.496 14.5935C17.2963 16.1925 15.8968 16.7922 14.2975 16.3923C13.385 16.1646 12.7328 15.5022 12.0107 14.7699C10.8347 13.5765 9.47364 12.195 6.50041 12.195Z" fill="#06B6D4"/>
</g>
<defs>
<clipPath id="clip0_7494_11953">
<rect width="24" height="14.3904" fill="white" transform="translate(0.498047 5)"/>
</clipPath>
</defs>
</svg>
