<svg width="25" height="24" viewBox="0 0 25 24" fill="none" xmlns="http://www.w3.org/2000/svg">
<g clip-path="url(#clip0_7494_12075)">
<path d="M24.1579 3.66331L13.0898 23.4548C12.8613 23.8635 12.2742 23.8659 12.0423 23.4592L0.754819 3.66515C0.502085 3.22209 0.881002 2.68533 1.38316 2.77515L12.4631 4.75552C12.5337 4.76815 12.6061 4.76803 12.6768 4.75515L23.5249 2.77792C24.0254 2.68671 24.4061 3.21933 24.1579 3.66331Z" fill="url(#paint0_linear_7494_12075)"/>
<path d="M17.7406 0.177405L9.54999 1.78235C9.48455 1.79517 9.42522 1.82938 9.38134 1.87959C9.33745 1.92981 9.3115 1.99318 9.30756 2.05975L8.80375 10.5691C8.80098 10.6158 8.80913 10.6625 8.82754 10.7055C8.84596 10.7484 8.87414 10.7865 8.90985 10.8167C8.94556 10.8469 8.98781 10.8683 9.03325 10.8793C9.07869 10.8903 9.12607 10.8906 9.17162 10.88L11.452 10.3538C11.6654 10.3045 11.8582 10.4925 11.8143 10.707L11.1368 14.0247C11.0912 14.248 11.3008 14.4388 11.5188 14.3726L12.9274 13.9447C13.1457 13.8784 13.3555 14.0699 13.3093 14.2933L12.2327 19.5046C12.1653 19.8306 12.5989 20.0083 12.7797 19.7289L12.9005 19.5422L19.5747 6.22259C19.6865 5.99959 19.4937 5.74529 19.2489 5.7926L16.9015 6.2456C16.6809 6.28812 16.4933 6.0827 16.5555 5.86696L18.0875 0.555954C18.1499 0.339666 17.9614 0.134147 17.7406 0.177405Z" fill="url(#paint1_linear_7494_12075)"/>
</g>
<defs>
<linearGradient id="paint0_linear_7494_12075" x1="-49.9945" y1="417.059" x2="3052.67" y2="4600.38" gradientUnits="userSpaceOnUse">
<stop stop-color="#41D1FF"/>
<stop offset="1" stop-color="#BD34FE"/>
</linearGradient>
<linearGradient id="paint1_linear_7494_12075" x1="1225.95" y1="114.033" x2="1863.59" y2="4456.59" gradientUnits="userSpaceOnUse">
<stop stop-color="#FFEA83"/>
<stop offset="0.083" stop-color="#FFDD35"/>
<stop offset="1" stop-color="#FFA800"/>
</linearGradient>
<clipPath id="clip0_7494_12075">
<rect width="23.904" height="24" fill="white" transform="translate(0.501953)"/>
</clipPath>
</defs>
</svg>
