<svg width="24" height="24" viewBox="0 0 24 24" fill="none" xmlns="http://www.w3.org/2000/svg">
<path d="M0.685361 8.44556C0.685361 8.44556 0.117798 8.03475 0.799736 7.48688L2.38749 6.063C2.38749 6.063 2.84236 5.58319 3.32292 6.0015L17.9807 17.1255V22.4599C17.9807 22.4599 17.9734 23.2976 16.9013 23.2054L0.685361 8.44556Z" fill="#2489CA"/>
<path d="M4.46437 11.8836L0.685684 15.3266C0.685684 15.3266 0.297559 15.6159 0.685684 16.1338L2.43993 17.7326C2.43993 17.7326 2.85656 18.1817 3.47268 17.6711L7.4775 14.6265L4.46437 11.8836Z" fill="#1070B3"/>
<path d="M11.0972 11.9121L18.0259 6.60863L17.9811 1.30294C17.9811 1.30294 17.6852 0.14494 16.698 0.748128L7.47754 9.15957L11.0972 11.9121Z" fill="#0877B9"/>
<path d="M16.9012 23.2119C17.3034 23.625 17.7913 23.4894 17.7913 23.4894L23.1907 20.8228C23.882 20.3503 23.7853 19.7644 23.7853 19.7644V3.83719C23.7853 3.13688 23.0705 2.89519 23.0705 2.89519L18.3903 0.633753C17.3679 0.000190854 16.6978 0.748128 16.6978 0.748128C16.6978 0.748128 17.5589 0.126191 17.9808 1.30313V22.3626C17.9808 22.5075 17.9501 22.6494 17.8886 22.7777C17.7656 23.0274 17.4974 23.2596 16.8566 23.1623L16.9012 23.2119Z" fill="#3C99D4"/>
</svg>
