<svg width="25" height="24" viewBox="0 0 25 24" fill="none" xmlns="http://www.w3.org/2000/svg">
<g clip-path="url(#clip0_7494_12088)">
<path d="M12.4058 0L23.0118 6V18L12.4058 24L1.7998 18V6L12.4058 0Z" fill="white"/>
<path d="M21.1179 17.586L12.7559 22.316V18.632L17.9659 15.766L21.1179 17.586ZM21.6899 17.068V7.176L18.6299 8.942V15.3L21.6899 17.068ZM3.65989 17.586L12.0219 22.316V18.632L6.81189 15.766L3.65989 17.586ZM3.08789 17.068V7.176L6.14789 8.942V15.3L3.08789 17.068ZM3.44589 6.536L12.0219 1.684V5.246L6.52789 8.268L6.48589 8.292L3.44589 6.536ZM21.3319 6.536L12.7559 1.684V5.246L18.2499 8.268L18.2919 8.292L21.3319 6.536Z" fill="#8ED6FB"/>
<path d="M12.0218 17.794L6.88184 14.968V9.368L12.0218 12.336V17.794ZM12.7558 17.794L17.8958 14.968V9.368L12.7558 12.336V17.794ZM7.22984 8.72L12.3898 5.882L17.5498 8.72L12.3898 11.7L7.22984 8.72Z" fill="#1C78C0"/>
</g>
<defs>
<clipPath id="clip0_7494_12088">
<rect width="24" height="24" fill="white" transform="translate(0.405762)"/>
</clipPath>
</defs>
</svg>
