<svg width="32" height="20" viewBox="0 0 32 20" fill="none" xmlns="http://www.w3.org/2000/svg">
<path d="M12.9139 9.27193C12.9139 9.27193 15.9409 9.04193 15.9409 5.41996C15.9409 1.80099 13.8879 0.0170001 10.7499 0.0170001L0 0V19.9998H10.9999C10.9999 19.9998 16.4999 20.1738 16.4999 13.9999C16.4999 13.9999 16.9039 9.27193 12.9139 9.27193ZM3.99997 2.99998H9.49993C9.49993 2.99998 11.3819 3.03098 11.3819 5.47096C11.3819 7.99994 9.49993 7.99994 9.49993 7.99994H3.99997V2.99998ZM9.99992 16.9999H3.99997V10.9999H9.99992C9.99992 10.9999 12.9999 11.0309 12.9999 13.9999C12.9999 16.9689 10.4319 16.9999 9.99992 16.9999Z" fill="white"/>
<path d="M25.0003 5.00049C17.4873 5.00049 17.5003 12.5004 17.5003 12.5004C17.5003 12.5004 17.0003 20.0004 25.0003 20.0004C25.0003 20.0004 32.0002 20.0004 32.0002 14.0004H28.0002C28.0002 14.0004 28.0002 17.0004 25.0003 17.0004C25.0003 17.0004 22.0003 17.0004 22.0003 13.0004C22.0003 13.0004 30.0002 13.0004 32.0002 13.0004C32.0002 11.0004 32.0002 5.00049 25.0003 5.00049ZM22.0003 11.0004C22.0003 11.0004 21.9343 8.00046 25.0003 8.00046C28.0652 8.00046 28.0002 11.0004 28.0002 11.0004H22.0003Z" fill="white"/>
<path d="M29.0004 2.00037H21.0005V4.00035H29.0004V2.00037Z" fill="white"/>
</svg>
