<svg width="25" height="24" viewBox="0 0 25 24" fill="none" xmlns="http://www.w3.org/2000/svg">
<path d="M12.7406 0.797791C18.9353 0.797791 23.9475 5.80991 23.9475 11.9953C23.9475 18.1807 18.9353 23.2022 12.7406 23.2022C6.54582 23.2022 1.53369 18.19 1.53369 12.0047C1.53369 5.8193 6.54582 0.797791 12.7406 0.797791Z" fill="#E74D89"/>
<path d="M12.7416 24C6.1151 24 0.727539 18.6218 0.727539 12.0047C0.727539 5.37818 6.1151 0 12.7416 0C19.3681 0 24.7557 5.37818 24.7557 11.9953C24.7557 18.6124 19.3681 24 12.7416 24ZM22.8691 13.6379C22.5218 13.5252 19.6966 12.6899 16.4772 13.1967C17.8194 16.876 18.3638 19.8795 18.4671 20.499C20.776 18.9503 22.4186 16.4912 22.8691 13.6379ZM16.7494 21.447C16.5993 20.546 15.9986 17.411 14.5625 13.6754C14.5437 13.6848 14.5156 13.6942 14.4968 13.6942C8.70564 15.7122 6.63133 19.72 6.44361 20.0954C8.18002 21.447 10.367 22.2542 12.7416 22.2542C14.1589 22.2636 15.5199 21.9726 16.7494 21.447ZM5.12019 18.8659C5.35484 18.4716 8.17064 13.8162 13.4643 12.0986C13.5957 12.0516 13.7365 12.0141 13.8679 11.9765C13.6145 11.3946 13.3329 10.8127 13.0326 10.2401C7.90783 11.77 2.93325 11.7043 2.48272 11.695C2.48272 11.7982 2.47333 11.9014 2.47333 12.0047C2.48272 14.6422 3.47764 17.045 5.12019 18.8659ZM2.6986 9.91162C3.15851 9.921 7.38221 9.93977 12.1878 8.66328C10.489 5.64099 8.64932 3.10677 8.38651 2.74071C5.50501 4.0923 3.365 6.73915 2.6986 9.91162ZM10.3388 2.04615C10.6204 2.42159 12.4882 4.95581 14.1683 8.0438C17.8194 6.67345 19.3587 4.60853 19.5465 4.34572C17.735 2.74071 15.3509 1.76457 12.7416 1.76457C11.9157 1.76457 11.1085 1.86781 10.3388 2.04615ZM20.6822 5.52835C20.4663 5.81932 18.7487 8.02503 14.9567 9.57372C15.1914 10.0618 15.426 10.5592 15.6419 11.0567C15.717 11.235 15.7921 11.4134 15.8672 11.5823C19.2837 11.1506 22.672 11.8451 23.0099 11.9108C22.9817 9.49863 22.1182 7.27415 20.6822 5.52835Z" fill="#B2215A"/>
</svg>
