<svg width="25" height="24" viewBox="0 0 25 24" fill="none" xmlns="http://www.w3.org/2000/svg">
<path fill-rule="evenodd" clip-rule="evenodd" d="M12.3636 0C5.53273 0 0 5.50583 0 12.3035C0 17.7478 3.53909 22.3463 8.45364 23.9765C9.07182 24.0842 9.30364 23.715 9.30364 23.3921C9.30364 23.0999 9.28818 22.131 9.28818 21.1005C6.18182 21.6696 5.37818 20.347 5.13091 19.6549C4.99182 19.3012 4.38909 18.2092 3.86364 17.917C3.43091 17.6863 2.81273 17.1173 3.84818 17.1019C4.82182 17.0865 5.51727 17.9939 5.74909 18.363C6.86182 20.2239 8.63909 19.701 9.35 19.3781C9.45818 18.5783 9.78273 18.04 10.1382 17.7325C7.38727 17.4249 4.51273 16.3637 4.51273 11.6576C4.51273 10.3196 4.99182 9.21226 5.78 8.35102C5.65636 8.04343 5.22364 6.78232 5.90364 5.09058C5.90364 5.09058 6.93909 4.76762 9.30364 6.3517C10.2927 6.07487 11.3436 5.93645 12.3945 5.93645C13.4455 5.93645 14.4964 6.07487 15.4855 6.3517C17.85 4.75224 18.8855 5.09058 18.8855 5.09058C19.5655 6.78232 19.1327 8.04343 19.0091 8.35102C19.7973 9.21226 20.2764 10.3042 20.2764 11.6576C20.2764 16.3791 17.3864 17.4249 14.6355 17.7325C15.0836 18.1169 15.47 18.8552 15.47 20.0086C15.47 21.6542 15.4545 22.9768 15.4545 23.3921C15.4545 23.715 15.6864 24.0995 16.3045 23.9765C21.1882 22.3463 24.7273 17.7325 24.7273 12.3035C24.7273 5.50583 19.1945 0 12.3636 0Z" fill="white"/>
</svg>
