<svg width="24" height="24" viewBox="0 0 24 24" fill="none" xmlns="http://www.w3.org/2000/svg">
<path d="M0 1.71919C0 0.77025 0.794438 0 1.77375 0H22.2262C23.2059 0 24 0.77025 24 1.71919V22.2811C24 23.2303 23.2059 24 22.2262 24H1.77375C0.794531 24 0 23.2304 0 22.2814V1.71891V1.71919Z" fill="#006699"/>
<path d="M7.2933 20.0849V9.28004H3.70192V20.0849H7.29367H7.2933ZM5.49836 7.80507C6.75048 7.80507 7.53002 6.97538 7.53002 5.9385C7.50658 4.878 6.75048 4.07147 5.52217 4.07147C4.29302 4.07147 3.49023 4.878 3.49023 5.93841C3.49023 6.97528 4.26948 7.80497 5.47483 7.80497H5.49808L5.49836 7.80507ZM9.28117 20.0849H12.8723V14.0516C12.8723 13.7291 12.8957 13.4058 12.9906 13.1754C13.2501 12.53 13.841 11.8618 14.8333 11.8618C16.1325 11.8618 16.6525 12.8526 16.6525 14.3052V20.0849H20.2435V13.8897C20.2435 10.5711 18.472 9.02672 16.1093 9.02672C14.1721 9.02672 13.3213 10.1094 12.8486 10.8469H12.8725V9.28041H9.28136C9.32823 10.294 9.28108 20.0853 9.28108 20.0853L9.28117 20.0849Z" fill="white"/>
</svg>
